<?xml version="1.0" encoding="utf-8"?>
<!-- Generator: Adobe Illustrator 23.0.2, SVG Export Plug-In . SVG Version: 6.00 Build 0)  -->
<svg version="1.1" id="Layer_1" xmlns="http://www.w3.org/2000/svg" xmlns:xlink="http://www.w3.org/1999/xlink" x="0px" y="0px"
	 viewBox="0 0 94 56" style="enable-background:new 0 0 94 56;" xml:space="preserve">
<path d="M18.5,27.5L18.5,27.5l0,1l0,0.6h0l0,0L38.9,29c0.2,1,0.6,2,1.3,2.8c0.9,1,2.1,1.5,3.2,1.4c1.2,0,2.3-0.5,3.2-1.5
	c0.7-0.8,1.1-1.8,1.3-2.8l25-0.2L60.6,42.6l1,1.1l14-15.8L61.3,12.3l-1,1.2l12.4,13.6l-24.9,0.2c-0.2-1-0.6-2-1.3-2.8
	c-1.8-2-4.7-2-6.4,0.1c-0.7,0.8-1.1,1.8-1.3,2.8L20,27.5 M45.6,30.6c-1.2,1.3-3.2,1.4-4.4,0.1c-0.4-0.5-0.7-1-0.8-1.6l6-0.1
	C46.3,29.5,46,30.1,45.6,30.6z M41.1,25.7c0.6-0.7,1.4-1.1,2.2-1.1c0.8,0,1.6,0.3,2.2,1c0.5,0.5,0.7,1.1,0.8,1.7l-6,0.1
	C40.5,26.8,40.7,26.1,41.1,25.7z" fill="#fff"/>
</svg>
