<?xml version="1.0" encoding="UTF-8" standalone="no"?>
<!-- Generator: Adobe Illustrator 23.0.2, SVG Export Plug-In . SVG Version: 6.00 Build 0)  -->

<svg
   xmlns:dc="http://purl.org/dc/elements/1.1/"
   xmlns:cc="http://creativecommons.org/ns#"
   xmlns:rdf="http://www.w3.org/1999/02/22-rdf-syntax-ns#"
   xmlns:svg="http://www.w3.org/2000/svg"
   xmlns="http://www.w3.org/2000/svg"
   xmlns:sodipodi="http://sodipodi.sourceforge.net/DTD/sodipodi-0.dtd"
   xmlns:inkscape="http://www.inkscape.org/namespaces/inkscape"
   version="1.1"
   id="Layer_1"
   x="0px"
   y="0px"
   viewBox="0 0 167.10001 31.4"
   xml:space="preserve"
   inkscape:version="0.91 r13725"
   sodipodi:docname="arrow-gateway.svg"
   width="167.10001"
   height="31.4"><metadata
     id="metadata9"><rdf:RDF><cc:Work
         rdf:about=""><dc:format>image/svg+xml</dc:format><dc:type
           rdf:resource="http://purl.org/dc/dcmitype/StillImage" /><dc:title></dc:title></cc:Work></rdf:RDF></metadata><defs
     id="defs7" /><sodipodi:namedview
     pagecolor="#ffffff"
     bordercolor="#666666"
     borderopacity="1"
     objecttolerance="10"
     gridtolerance="10"
     guidetolerance="10"
     inkscape:pageopacity="0"
     inkscape:pageshadow="2"
     inkscape:window-width="1920"
     inkscape:window-height="1017"
     id="namedview5"
     showgrid="false"
     fit-margin-top="0"
     fit-margin-left="0"
     fit-margin-right="0"
     fit-margin-bottom="0"
     inkscape:zoom="1.6952381"
     inkscape:cx="83.5"
     inkscape:cy="15.7"
     inkscape:window-x="-8"
     inkscape:window-y="-8"
     inkscape:window-maximized="1"
     inkscape:current-layer="Layer_1" /><path
     d="m 0,15.2 0,0 0,1 0,0.6 0,0 0,0 130.4,-0.1 c 0.2,1 0.6,2 1.3,2.8 0.9,1 2.1,1.5 3.2,1.4 1.2,0 2.3,-0.5 3.2,-1.5 0.7,-0.8 1.1,-1.8 1.3,-2.8 l 25,-0.2 -12.3,13.9 1,1.1 14,-15.8 -14.2,-15.6 -1,1.2 12.4,13.6 -24.9,0.2 c -0.2,-1 -0.6,-2 -1.3,-2.8 -1.8,-2 -4.7,-2 -6.4,0.1 -0.7,0.8 -1.1,1.8 -1.3,2.8 L 1.5,15.2 m 135.6,3.1 c -1.2,1.3 -3.2,1.4 -4.4,0.1 -0.4,-0.5 -0.7,-1 -0.8,-1.6 l 6,-0.1 c -0.1,0.5 -0.4,1.1 -0.8,1.6 z m -4.5,-4.9 c 0.6,-0.7 1.4,-1.1 2.2,-1.1 0.8,0 1.6,0.3 2.2,1 0.5,0.5 0.7,1.1 0.8,1.7 l -6,0.1 c 0.2,-0.6 0.4,-1.3 0.8,-1.7 z"
     id="path3"
     inkscape:connector-curvature="0"
     style="fill:#ffffff" /></svg>