<?xml version="1.0" encoding="utf-8"?>
<!-- Generator: Adobe Illustrator 23.0.1, SVG Export Plug-In . SVG Version: 6.00 Build 0)  -->
<svg version="1.1" id="Layer_1" xmlns="http://www.w3.org/2000/svg" xmlns:xlink="http://www.w3.org/1999/xlink" x="0px" y="0px"
	 viewBox="0 0 80 60" style="enable-background:new 0 0 80 60;" xml:space="preserve">
<g>
	<path d="M51.7,0.5l-2,2.2l24.7,25.6l-47.6,0.4c-0.3-1.9-1.1-3.8-2.6-5.2c-3.6-3.7-9.3-3.7-12.8,0.1c-1.4,1.5-2.2,3.3-2.5,5.3
		l-9,0.1L0,32l9.1-0.1c0.3,1.9,1.1,3.7,2.6,5.2c1.8,1.9,4.1,2.8,6.4,2.7c2.3,0,4.6-1,6.4-2.8c1.4-1.5,2.2-3.3,2.5-5.2l47.7-0.4
		L50.2,57.4l2,2.1L80,29.8L51.7,0.5z M13.5,25.7c1.2-1.3,2.8-2,4.3-2c1.6,0,3.1,0.6,4.4,1.9c0.9,0.9,1.4,2,1.6,3.1l-11.9,0.1
		C12.2,27.7,12.7,26.5,13.5,25.7z M22.4,34.8c-2.4,2.5-6.3,2.6-8.7,0.1c-0.8-0.9-1.4-1.9-1.6-3l11.9-0.1
		C23.7,32.9,23.2,33.9,22.4,34.8z" fill="#fff"/>
</g>
</svg>
