<?xml version="1.0" standalone="no"?>
<!DOCTYPE svg PUBLIC "-//W3C//DTD SVG 20010904//EN"
 "http://www.w3.org/TR/2001/REC-SVG-20010904/DTD/svg10.dtd">
<svg version="1.0" xmlns="http://www.w3.org/2000/svg"
 width="1440.000000pt" height="1440.000000pt" viewBox="0 0 1440.000000 1440.000000"
 preserveAspectRatio="xMidYMid meet">

<g transform="translate(0.000000,1440.000000) scale(0.100000,-0.100000)"
fill="#000000" stroke="none">
<path d="M0 7200 l0 -7200 7200 0 7200 0 0 7200 0 7200 -7200 0 -7200 0 0
-7200z m3045 3775 c58 -83 71 -100 212 -270 195 -235 486 -519 734 -717 192
-154 486 -351 684 -460 76 -42 431 -218 439 -218 3 0 29 -11 58 -24 29 -13 85
-36 123 -51 39 -15 79 -31 90 -36 23 -10 227 -77 330 -108 97 -29 239 -66 310
-81 33 -7 74 -16 90 -20 66 -18 278 -53 450 -74 239 -29 357 -36 635 -36 278
0 396 7 635 36 172 21 384 56 450 74 17 4 57 13 90 20 71 15 213 52 310 81
103 31 307 98 330 108 11 5 52 21 90 36 39 15 94 38 123 51 29 13 55 24 58 24
8 0 363 176 439 218 288 159 620 396 895 638 253 223 593 599 742 819 23 35
46 65 51 65 4 0 7 -442 7 -982 0 -784 3 -1016 15 -1148 22 -246 42 -387 82
-580 8 -41 19 -93 24 -115 8 -40 48 -196 69 -270 42 -145 122 -371 171 -482
11 -24 19 -45 19 -48 0 -7 25 -62 82 -185 69 -146 83 -235 53 -334 -8 -26 -61
-125 -117 -220 -57 -94 -105 -175 -107 -181 -2 -5 -29 -48 -60 -95 -31 -47
-58 -89 -60 -94 -7 -17 -175 -262 -267 -391 -311 -433 -588 -760 -983 -1158
-469 -474 -925 -852 -1450 -1204 -84 -57 -156 -103 -158 -103 -3 0 -27 -16
-53 -35 -26 -19 -51 -35 -55 -35 -5 0 -22 -10 -39 -23 -17 -13 -38 -26 -46
-30 -8 -4 -33 -18 -55 -32 -22 -13 -49 -29 -60 -34 -11 -6 -33 -19 -50 -30
-16 -12 -33 -21 -36 -21 -3 0 -27 30 -54 68 -139 189 -225 271 -306 292 -19 5
-59 16 -89 24 -120 35 -282 46 -695 46 -431 0 -575 -10 -706 -50 -103 -31
-129 -41 -129 -51 0 -5 -6 -9 -12 -9 -24 0 -136 -125 -218 -242 -29 -43 -59
-78 -65 -78 -5 0 -27 11 -47 25 -20 14 -40 25 -43 25 -3 0 -31 16 -61 35 -30
19 -57 35 -60 35 -3 0 -20 11 -38 25 -18 14 -36 25 -41 25 -4 0 -29 16 -55 35
-26 19 -50 35 -53 35 -10 0 -302 198 -441 299 -418 304 -787 623 -1176 1018
-282 285 -428 447 -651 723 -89 110 -293 379 -371 490 -66 94 -218 322 -218
327 0 2 -11 19 -24 36 -54 72 -301 496 -318 546 -34 102 -21 191 50 341 57
123 82 178 82 185 0 3 8 24 19 48 41 93 65 156 111 296 65 199 74 229 104 356
77 319 102 470 131 795 12 132 15 364 15 1155 0 544 4 985 8 980 5 -6 30 -41
57 -80z"/>
<path d="M3555 6889 c-9 -26 11 -66 98 -203 357 -562 834 -1095 1292 -1443 81
-61 258 -177 348 -227 51 -28 105 -34 125 -14 35 35 -13 332 -85 523 -77 205
-181 380 -259 437 -49 36 -405 273 -674 450 -777 509 -759 498 -801 498 -29 0
-39 -5 -44 -21z"/>
<path d="M10738 6892 c-43 -28 -303 -198 -433 -283 -66 -43 -196 -128 -290
-189 -93 -60 -296 -194 -450 -297 -271 -182 -281 -190 -327 -258 -87 -128
-188 -352 -218 -485 -47 -205 -61 -331 -40 -371 16 -30 69 -24 137 14 549 311
1129 896 1597 1611 151 229 164 269 91 273 -24 1 -51 -5 -67 -15z"/>
<path d="M8295 5680 c-3 -5 -1 -10 4 -10 6 0 11 5 11 10 0 6 -2 10 -4 10 -3 0
-8 -4 -11 -10z"/>
<path d="M8276 5625 c-9 -26 -7 -32 5 -12 6 10 9 21 6 23 -2 3 -7 -2 -11 -11z"/>
<path d="M6121 5614 c0 -11 3 -14 6 -6 3 7 2 16 -1 19 -3 4 -6 -2 -5 -13z"/>
<path d="M6141 5544 c0 -11 3 -14 6 -6 3 7 2 16 -1 19 -3 4 -6 -2 -5 -13z"/>
<path d="M8250 5540 c0 -11 2 -20 4 -20 2 0 6 9 9 20 3 11 1 20 -4 20 -5 0 -9
-9 -9 -20z"/>
<path d="M8225 5479 c-4 -12 -2 -26 4 -32 8 -8 11 -2 11 21 0 37 -6 41 -15 11z"/>
<path d="M6160 5471 c0 -25 6 -27 13 -6 4 8 2 17 -3 20 -6 4 -10 -3 -10 -14z"/>
<path d="M6187 5398 c-15 -39 -16 -48 -6 -48 13 0 22 24 16 47 -4 17 -4 17
-10 1z"/>
<path d="M8198 5385 c-6 -28 6 -34 16 -9 8 22 7 34 -3 34 -5 0 -11 -11 -13
-25z"/>
<path d="M6210 5312 c0 -18 5 -32 10 -32 6 0 8 11 4 28 -10 39 -14 40 -14 4z"/>
<path d="M8176 5317 c-5 -15 -6 -31 -2 -34 11 -11 18 5 14 34 l-4 28 -8 -28z"/>
<path d="M6241 5234 c0 -11 3 -14 6 -6 3 7 2 16 -1 19 -3 4 -6 -2 -5 -13z"/>
<path d="M8150 5225 c1 -26 2 -28 11 -12 8 14 8 22 0 30 -8 8 -11 3 -11 -18z"/>
<path d="M6254 5155 c-3 -8 -1 -27 4 -42 10 -27 10 -26 11 15 1 43 -5 54 -15
27z"/>
<path d="M8127 5138 c-3 -18 -1 -37 4 -42 6 -6 9 -2 9 10 0 10 3 29 6 42 4 12
2 22 -4 22 -5 0 -12 -15 -15 -32z"/>
<path d="M6280 5046 c0 -14 5 -28 10 -31 6 -3 10 5 10 19 0 14 -4 28 -10 31
-6 3 -10 -5 -10 -19z"/>
<path d="M8108 5064 c-15 -14 -8 -62 8 -68 9 -4 19 -4 22 -1 3 3 0 5 -6 5 -6
0 -12 16 -14 36 -2 20 -6 32 -10 28z"/>
<path d="M6300 4920 c0 -22 5 -40 10 -40 6 0 10 18 10 40 0 22 -4 40 -10 40
-5 0 -10 -18 -10 -40z"/>
<path d="M8080 4921 c0 -22 5 -43 10 -46 6 -3 10 4 10 17 0 13 3 33 6 46 5 16
2 22 -10 22 -12 0 -16 -10 -16 -39z"/>
<path d="M8060 4826 c-12 -34 -13 -66 -1 -66 11 0 26 78 17 87 -3 3 -10 -6
-16 -21z"/>
<path d="M6324 4824 c3 -9 6 -27 6 -40 0 -13 5 -24 10 -24 6 0 9 12 6 28 -2
15 -5 33 -5 40 -1 6 -6 12 -12 12 -6 0 -8 -7 -5 -16z"/>
<path d="M6326 4741 c-4 -7 -5 -15 -2 -18 9 -9 19 4 14 18 -4 11 -6 11 -12 0z"/>
<path d="M8036 4684 c-10 -26 -7 -124 4 -124 6 0 10 30 10 70 0 71 -3 83 -14
54z"/>
<path d="M6350 4620 c0 -33 4 -60 10 -60 6 0 10 27 10 60 0 33 -4 60 -10 60
-6 0 -10 -27 -10 -60z"/>
<path d="M8011 4418 c-1 -59 3 -98 9 -98 12 0 12 147 0 175 -6 13 -9 -14 -9
-77z"/>
<path d="M6384 4405 c0 -49 1 -71 3 -48 2 23 2 64 0 90 -2 26 -3 8 -3 -42z"/>
<path d="M6401 4174 c0 -11 3 -14 6 -6 3 7 2 16 -1 19 -3 4 -6 -2 -5 -13z"/>
<path d="M7986 4124 c-8 -58 -6 -170 4 -249 5 -44 7 -13 9 118 0 97 -1 177 -3
177 -2 0 -6 -21 -10 -46z"/>
<path d="M6401 3986 c-1 -93 1 -167 3 -165 10 9 15 266 7 299 -6 25 -9 -14
-10 -134z"/>
</g>
</svg>
