<?xml version="1.0" encoding="utf-8"?>
<!-- Generator: Adobe Illustrator 22.1.0, SVG Export Plug-In . SVG Version: 6.00 Build 0)  -->
<svg version="1.1" id="Layer_1" xmlns="http://www.w3.org/2000/svg" xmlns:xlink="http://www.w3.org/1999/xlink" x="0px" y="0px"
	 viewBox="0 0 62 70" style="enable-background:new 0 0 62 70;" xml:space="preserve">
<g>
	<path d="M5,49.9c-0.6-2.3-1.1-4.5-1.7-6.8c-0.1-0.5-0.3-0.6-0.6-0.5c-0.3,0.1-0.6,0.2-0.9,0.3c-0.1,0.1-0.3,0.2-0.3,0.4
		c-0.2,1.3-0.4,2.7-0.5,4c-0.3,2-0.6,4-0.5,5.3c0.3,4.3,1.3,7.5,3.2,10.3c1.2,1.8,2.5,3.3,3.7,5.1c0.6,0.9,1.2,1.2,1.9,0.7
		c0.5-0.3,0.6-0.3,0.4-1C8,61.9,6.5,55.9,5,49.9z M2.5,41.7c0.8-0.1,1.5-0.2,2.2-0.3c0.1,0,0.2-0.3,0.2-0.4
		c-0.2-1.4-0.4-2.8-0.6-4.2C3.8,33.4,3.8,30,4.4,26.6c1.3-6.9,4.5-12.6,9.9-17c6.2-5.1,13.3-7.1,21.3-5.7c6.5,1.2,11.9,4.5,16,9.6
		c5.6,7,7.4,15.1,6,23.9c-0.2,1.2-0.4,2.4-0.5,3.5c0,0.1,0.1,0.4,0.2,0.4c0.7,0.1,1.5,0.2,2.2,0.3c0-0.1,0.1-0.2,0.1-0.3
		c0.2-1.4,0.4-2.8,0.6-4.3c0.5-3.4,0.6-6.8,0-10.2c-1-6.5-3.8-12.1-8.3-16.9C46.6,4.5,40.1,1.4,32.4,1c-5.6-0.3-10.9,0.9-15.7,3.8
		C6.7,10.9,1.8,20,1.4,31.7c-0.1,2.4,0.3,4.8,0.7,7.3C2.2,39.9,2.4,40.8,2.5,41.7z M10,44.2C9.7,42.9,9,42,8,41.8
		c-0.6-0.1-1.1,0-1.7,0.2c-1,0.3-1.5,1.5-1.4,2.8c0,0.3,0.1,0.5,0.1,0.8c0.7,2.6,1.3,5.3,2,7.9c1,3.9,2,7.9,3,11.8
		c0.3,1.1,0.9,1.9,1.8,2.2c1.1,0.4,2.1,0.1,2.8-0.8C15.1,66,15.3,65,15,64C13.4,57.4,11.7,50.8,10,44.2z M61.2,47.4
		c-0.2-1.3-0.3-2.7-0.5-4c0-0.2-0.2-0.3-0.3-0.4c-0.3-0.1-0.6-0.2-0.9-0.3c-0.4-0.1-0.5,0-0.6,0.5c-0.6,2.3-1.1,4.5-1.7,6.8
		c-1.5,6-3,11.9-4.5,17.9c-0.2,0.7-0.1,0.8,0.4,1c0.8,0.4,1.3,0.2,1.9-0.7c1.2-1.8,2.5-3.3,3.7-5.1c1.9-2.8,2.8-6,3.2-10.3
		C61.8,51.4,61.5,49.4,61.2,47.4z M57,45.6c0.1-0.2,0.1-0.5,0.1-0.8c0.1-1.3-0.5-2.4-1.4-2.8c-0.5-0.2-1.1-0.3-1.7-0.2
		c-1,0.2-1.8,1-2.1,2.3c-1.7,6.6-3.3,13.2-5,19.8c-0.3,1.1-0.1,2,0.5,2.7c0.7,0.9,1.7,1.2,2.8,0.8c0.9-0.3,1.5-1.1,1.8-2.2
		c1-3.9,2-7.8,3-11.8C55.7,50.9,56.3,48.2,57,45.6z M38.8,34L31,41.8L23.2,34L21,36.2l7.8,7.8L21,51.8l2.2,2.2l7.8-7.8l7.8,7.8
		l2.2-2.2L33.2,44l7.8-7.8L38.8,34z" fill="#fff" />
</g>
</svg>
