<?xml version="1.0" encoding="UTF-8" standalone="no"?>
<!-- Generator: Adobe Illustrator 23.0.1, SVG Export Plug-In . SVG Version: 6.00 Build 0)  -->

<svg
   xmlns:dc="http://purl.org/dc/elements/1.1/"
   xmlns:cc="http://creativecommons.org/ns#"
   xmlns:rdf="http://www.w3.org/1999/02/22-rdf-syntax-ns#"
   xmlns:svg="http://www.w3.org/2000/svg"
   xmlns="http://www.w3.org/2000/svg"
   xmlns:sodipodi="http://sodipodi.sourceforge.net/DTD/sodipodi-0.dtd"
   xmlns:inkscape="http://www.inkscape.org/namespaces/inkscape"
   version="1.1"
   id="Layer_1"
   x="0px"
   y="0px"
   viewBox="0 0 271 8.6627684"
   xml:space="preserve"
   inkscape:version="0.91 r13725"
   sodipodi:docname="icon-underline-white.svg"
   width="271"
   height="8.6627684"><metadata
     id="metadata9"><rdf:RDF><cc:Work
         rdf:about=""><dc:format>image/svg+xml</dc:format><dc:type
           rdf:resource="http://purl.org/dc/dcmitype/StillImage" /><dc:title></dc:title></cc:Work></rdf:RDF></metadata><defs
     id="defs7" /><sodipodi:namedview
     pagecolor="#ffffff"
     bordercolor="#666666"
     borderopacity="1"
     objecttolerance="10"
     gridtolerance="10"
     guidetolerance="10"
     inkscape:pageopacity="0"
     inkscape:pageshadow="2"
     inkscape:window-width="1366"
     inkscape:window-height="705"
     id="namedview5"
     showgrid="false"
     fit-margin-top="0"
     fit-margin-left="0"
     fit-margin-right="0"
     fit-margin-bottom="0"
     inkscape:zoom="3.701912"
     inkscape:cx="59.950955"
     inkscape:cy="4.3"
     inkscape:window-x="-8"
     inkscape:window-y="-8"
     inkscape:window-maximized="1"
     inkscape:current-layer="Layer_1" /><path
     d="m 269.5,3.4627679 -130.7,0.2 c -0.2,-0.9 -0.5,-1.7 -1.2,-2.4 -1.6,-1.70000001 -4.2,-1.70000001 -5.8,0.1 -0.6,0.7 -1,1.5 -1.1,2.5 l -130.7,-0.1 0.1,1.3 130.7,-0.1 c 0.2,0.9 0.5,1.7 1.2,2.4 0.8,0.9 1.9,1.3 2.9,1.3 1.1,0 2.1,-0.5 2.9,-1.3 0.6,-0.7 1,-1.5 1.1,-2.4 l 130.7,-0.1 1.4,-0.7 -1.5,-0.7 z m -136.8,-1.2 c 0.6,-0.6 1.3,-1 1.9,-1 0.7,0 1.4,0.2 2,0.9 0.4,0.4 0.6,1 0.7,1.4 l -5.4,0.1 c 0.2,-0.5 0.5,-1 0.8,-1.4 z m 4,4.2 c -1.1,1.1 -2.8,1.2 -4,0.1 -0.3,-0.4 -0.6,-0.9 -0.7,-1.3 l 5.4,-0.1 c 0,0.4 -0.3,0.8 -0.7,1.3 z"
     id="path3"
     inkscape:connector-curvature="0"
     style="fill:#ffffff" /></svg>