<?xml version="1.0" encoding="utf-8"?>
<!-- Generator: Adobe Illustrator 23.0.1, SVG Export Plug-In . SVG Version: 6.00 Build 0)  -->
<svg version="1.1" id="Layer_1" xmlns="http://www.w3.org/2000/svg" xmlns:xlink="http://www.w3.org/1999/xlink" x="0px" y="0px"
	 viewBox="0 0 300 30" style="enable-background:new 0 0 300 30;" xml:space="preserve">
<g>
	<path d="M284.6,1.5l-0.9,1L295,14.2L50.3,14.4c-0.2-0.9-0.5-1.7-1.2-2.4c-1.6-1.7-4.2-1.7-5.8,0.1c-0.6,0.7-1,1.5-1.1,2.5L2.5,14.5
		l0.1,1.3l39.7-0.1c0.2,0.9,0.5,1.7,1.2,2.4c0.8,0.9,1.9,1.3,2.9,1.3c1.1,0,2.1-0.5,2.9-1.3c0.6-0.7,1-1.5,1.1-2.4l244.6-0.2
		l-11.2,11.9l0.9,1l12.7-13.6L284.6,1.5z M44.2,13c0.6-0.6,1.3-1,1.9-1c0.7,0,1.4,0.2,2,0.9c0.4,0.4,0.6,1,0.7,1.4l-5.4,0.1
		C43.6,14,43.9,13.4,44.2,13z M48.2,17.2c-1.1,1.1-2.8,1.2-4,0.1c-0.3-0.4-0.6-0.9-0.7-1.3l5.4-0.1C48.9,16.4,48.6,16.7,48.2,17.2z"
		fill="#fff" />
</g>
</svg>
