<?xml version="1.0" encoding="utf-8"?>
<!-- Generator: Adobe Illustrator 23.0.1, SVG Export Plug-In . SVG Version: 6.00 Build 0)  -->
<svg version="1.1" id="Firefox_-_Large" xmlns="http://www.w3.org/2000/svg" xmlns:xlink="http://www.w3.org/1999/xlink" x="0px"
	 y="0px" viewBox="0 0 60 60" style="enable-background:new 0 0 60 60;" xml:space="preserve">
<style type="text/css">
	.st0{fill:none;}
	.st1{fill-rule:evenodd;clip-rule:evenodd;fill:#EA4335;}
	.st2{fill-rule:evenodd;clip-rule:evenodd;fill:#4285F4;}
	.st3{fill-rule:evenodd;clip-rule:evenodd;fill:#34A853;}
	.st4{fill-rule:evenodd;clip-rule:evenodd;fill:#FBBC05;}
</style>
<title>firefox-logo</title>
<g id="_x34__stroke">
	<g id="Google_Chrome">
		<rect x="1.9" y="2.8" class="st0" width="56.2" height="56.2"/>
		<g id="Google_Chrome_1_">
			<path class="st1" d="M8.7,12.6C21.8-2.6,46,0.4,55,18.2c-6.4,0-16.4,0-21.8,0c-3.9,0-6.5-0.1-9.2,1.4c-3.2,1.7-5.7,4.8-6.5,8.5
				L8.7,12.6z"/>
			<path class="st2" d="M20.7,30.9c0,5.2,4.2,9.3,9.3,9.3c5.1,0,9.3-4.2,9.3-9.3c0-5.2-4.2-9.3-9.3-9.3
				C24.8,21.6,20.7,25.8,20.7,30.9z"/>
			<path class="st3" d="M33.6,43.1c-5.2,1.6-11.4-0.2-14.7-6c-2.6-4.4-9.3-16.2-12.4-21.6C-4.3,32.1,5,54.6,24.6,58.5L33.6,43.1z"/>
			<path class="st4" d="M38.7,21.6C43,25.6,44,32.2,41,37.3c-2.2,3.8-9.3,15.8-12.8,21.6c20.2,1.2,34.9-18.5,28.2-37.4
				C56.5,21.6,38.7,21.6,38.7,21.6z"/>
		</g>
	</g>
</g>
</svg>
