<?xml version="1.0" encoding="utf-8"?>
<!-- Generator: Adobe Illustrator 23.0.1, SVG Export Plug-In . SVG Version: 6.00 Build 0)  -->
<svg version="1.1" id="Firefox_-_Large" xmlns="http://www.w3.org/2000/svg" xmlns:xlink="http://www.w3.org/1999/xlink" x="0px"
	 y="0px" viewBox="0 0 60 60" style="enable-background:new 0 0 60 60;" xml:space="preserve">
<style type="text/css">
	.st0{fill:url(#SVGID_1_);}
	.st1{fill:url(#_Path__1_);}
	.st2{fill:url(#SVGID_2_);}
	.st3{fill:url(#SVGID_3_);}
	.st4{fill:url(#SVGID_4_);}
	.st5{fill:url(#SVGID_5_);}
	.st6{fill:url(#SVGID_6_);}
	.st7{fill:url(#SVGID_7_);}
	.st8{fill:url(#SVGID_8_);}
	.st9{fill:url(#SVGID_9_);}
	.st10{fill:url(#SVGID_10_);}
	.st11{fill:url(#SVGID_11_);}
	.st12{fill:url(#SVGID_12_);}
	.st13{fill:url(#SVGID_13_);}
</style>
<title>firefox-logo</title>
<g>
	
		<radialGradient id="SVGID_1_" cx="-15421.623" cy="8627.5547" r="27.4924" fx="-15423.377" fy="8627.5547" gradientTransform="matrix(0.762 3.400000e-02 5.000000e-02 -1.12 11376.2109 10202.209)" gradientUnits="userSpaceOnUse">
		<stop  offset="4.500000e-02" style="stop-color:#FFEA00"/>
		<stop  offset="0.12" style="stop-color:#FFDE00"/>
		<stop  offset="0.254" style="stop-color:#FFBF00"/>
		<stop  offset="0.429" style="stop-color:#FF8E00"/>
		<stop  offset="0.769" style="stop-color:#FF272D"/>
		<stop  offset="0.872" style="stop-color:#E0255A"/>
		<stop  offset="0.953" style="stop-color:#CC2477"/>
		<stop  offset="1" style="stop-color:#C42482"/>
	</radialGradient>
	<path class="st0" d="M47.9,5.6c-1.5,1.7-2.1,5.5-0.7,9.4c1.5,3.9,3.7,3,5.2,7c1.9,5.2,1,12.2,1,12.2s2.2,6.5,3.8-0.4
		C60.7,20.8,47.9,8.8,47.9,5.6z"/>
	
		<radialGradient id="_Path__1_" cx="-8192.3428" cy="8196.3066" r="48.2457" gradientTransform="matrix(1.225 0 0 -1.225 10076.9883 10052.2529)" gradientUnits="userSpaceOnUse">
		<stop  offset="0" style="stop-color:#00CCDA"/>
		<stop  offset="0.22" style="stop-color:#0083FF"/>
		<stop  offset="0.261" style="stop-color:#007AF9"/>
		<stop  offset="0.33" style="stop-color:#0060E8"/>
		<stop  offset="0.333" style="stop-color:#005FE7"/>
		<stop  offset="0.438" style="stop-color:#2639AD"/>
		<stop  offset="0.522" style="stop-color:#401E84"/>
		<stop  offset="0.566" style="stop-color:#4A1475"/>
	</radialGradient>
	<path id="_Path_" class="st1" d="M30.1,59.4c15,0,27.1-12.2,27.1-27.2S45,5,30.1,5S3,17.2,3,32.2C3,47.3,15.1,59.4,30.1,59.4z"/>
	
		<linearGradient id="SVGID_2_" gradientUnits="userSpaceOnUse" x1="33.9004" y1="15.537" x2="22.2273" y2="53.7216" gradientTransform="matrix(1 0 0 -1 0 60)">
		<stop  offset="0" style="stop-color:#000F43;stop-opacity:0.4"/>
		<stop  offset="0.485" style="stop-color:#001962;stop-opacity:0.173"/>
		<stop  offset="1" style="stop-color:#002079;stop-opacity:0"/>
	</linearGradient>
	<path class="st2" d="M50.4,49c-0.6,0.4-1.2,0.8-1.8,1.1c0.8-1.2,1.6-2.5,2.3-3.8c0.6-0.6,1.1-1.3,1.5-1.9c0.2-0.3,0.4-0.7,0.7-1.2
		c1.5-2.7,3.2-7.2,3.2-11.7v0c0-0.1,0-0.2,0-0.3c0-1.1-0.1-2.3-0.3-3.4c0,0.1,0,0.2,0,0.3c0-0.1,0-0.1,0-0.2c0,0.1,0,0.2,0.1,0.4
		c0.3,2.6,0.1,5.2-1,7.1c0,0,0,0.1-0.1,0.1c0.6-2.9,0.8-6.1,0.1-9.2c0,0-0.3-1.5-2.2-6.2c-1.1-2.7-3-4.9-4.8-6.5
		c-1.5-1.9-2.9-3.1-3.6-3.9c-1.6-1.7-2.2-2.9-2.5-3.7c-0.2-0.1-3.2-3-3.5-3.1c-1.3,2-5.4,8.4-3.5,14.3c0.9,2.7,3.1,5.5,5.5,7.1
		c0.1,0.1,1.4,1.5,2,4.7c0.6,3.3,0.3,5.8-1,9.6c-1.5,3.3-5.5,6.6-9.2,6.9c-7.9,0.7-10.8-4-10.8-4c2.8,1.1,5.9,0.9,7.8-0.3
		c1.9-1.2,3.1-2.1,4-1.7c0.9,0.3,1.7-0.7,1-1.7c-1-1.6-3-2.4-4.8-2.1c-1.9,0.3-3.7,1.8-6.2,0.4c-0.2-0.1-0.3-0.2-0.5-0.3
		c-0.2-0.1,0.5,0.2,0.4,0c-0.5-0.3-1.4-0.8-1.6-1c0,0,0.4,0.1,0.3,0.1c-2.3-1.9-2.1-3.2-2-4.1c0.1-0.7,0.5-1.5,1.2-1.8
		c0.3,0.2,0.6,0.3,0.6,0.3s-0.1-0.3-0.2-0.5c0,0,0.1,0,0.1,0c0.3,0.1,0.9,0.5,1.2,0.7c0.4,0.3,0.6,0.6,0.6,0.6s0.1-0.1,0-0.3
		c0-0.1-0.2-0.5-0.6-0.8l0,0c0.3,0.1,0.5,0.3,0.7,0.5c0.1-0.4,0.3-0.9,0.3-1.7c0-0.6,0-0.7-0.1-0.9c-0.1-0.2,0.1-0.3,0.2-0.1
		c0-0.2-0.1-0.3-0.1-0.5l0,0c0.2-0.7,4.2-2.5,4.5-2.7c0.5-0.3,0.9-0.8,1.2-1.3c0.2-0.4,0.4-0.8,0.4-1.6c0-0.5-0.2-0.9-4.2-1.3
		c-1.1-0.1-1.7-0.9-2.1-1.6c-0.1-0.2-0.1-0.3-0.2-0.4c-0.1-0.2-0.1-0.3-0.2-0.5c0.7-1.9,1.8-3.5,3.4-4.7c0.1-0.1-0.4,0-0.3-0.1
		c0.1-0.1,0.8-0.4,0.9-0.4c0.2-0.1-0.7-0.4-1.4-0.3c-0.7,0.1-0.9,0.2-1.3,0.3c0.2-0.2,0.7-0.4,0.6-0.4c-0.8,0.1-1.8,0.6-2.6,1.1
		c0-0.1,0-0.2,0.1-0.3c-0.4,0.2-1.4,0.8-1.6,1.4c0-0.1,0-0.2,0-0.3c-0.3,0.2-0.6,0.5-0.8,0.8l0,0c-2.3-0.9-4.3-1-6-0.6
		c-0.4-0.4-0.6-0.1-1.4-2c-0.1-0.1,0,0.1,0,0c-0.1-0.4,0.1,0.5,0,0c-1.4,1.1-3.3,2.4-4.2,3.3c0,0,1-0.3,0,0
		c-0.4,0.1-0.3,0.3-0.4,2.3c0,0.1,0,0.3,0,0.4c-0.7,0.9-1.2,1.7-1.4,2.1c-0.9,1.6-1.9,4.1-2.9,8c0.4-1.1,1-2.1,1.6-3.1
		c-0.8,2.1-1.6,5.4-1.8,10.4c0.2-1,0.5-2.1,0.8-3.1C4.3,35.8,5,40,6.6,43.9c0.6,1.4,1.5,3.5,3.1,5.8c5,5.3,12.1,8.6,20,8.6
		C37.9,58.3,45.3,54.7,50.4,49z"/>
	
		<radialGradient id="SVGID_3_" cx="-9195.1396" cy="7106.5581" r="16.2735" gradientTransform="matrix(1.219 0.123 0.123 -1.219 10396.2334 9832.6436)" gradientUnits="userSpaceOnUse">
		<stop  offset="3.000000e-03" style="stop-color:#FFEA00"/>
		<stop  offset="0.497" style="stop-color:#FF272D"/>
		<stop  offset="1" style="stop-color:#C42482"/>
	</radialGradient>
	<path class="st3" d="M44.3,52.8c9.9-1.2,14.3-11.4,8.7-11.6C47.9,41.1,39.6,53.4,44.3,52.8z"/>
	
		<radialGradient id="SVGID_4_" cx="-9196.6123" cy="7122.1626" r="27.1755" gradientTransform="matrix(1.219 0.123 0.123 -1.219 10396.2334 9832.6436)" gradientUnits="userSpaceOnUse">
		<stop  offset="3.000000e-03" style="stop-color:#FFE900"/>
		<stop  offset="0.157" style="stop-color:#FFAF0E"/>
		<stop  offset="0.316" style="stop-color:#FF7A1B"/>
		<stop  offset="0.472" style="stop-color:#FF4E26"/>
		<stop  offset="0.621" style="stop-color:#FF2C2E"/>
		<stop  offset="0.762" style="stop-color:#FF1434"/>
		<stop  offset="0.892" style="stop-color:#FF0538"/>
		<stop  offset="1" style="stop-color:#FF0039"/>
	</radialGradient>
	<path class="st4" d="M53.7,39.2c6.8-4,5.1-12.6,5.1-12.6s-2.6,3.1-4.4,7.9C52.5,39.4,49.6,41.6,53.7,39.2z"/>
	
		<radialGradient id="SVGID_5_" cx="-9192.7686" cy="7096.9712" r="24.9365" gradientTransform="matrix(1.219 0.123 0.123 -1.219 10396.2334 9832.6436)" gradientUnits="userSpaceOnUse">
		<stop  offset="3.000000e-03" style="stop-color:#FF272D"/>
		<stop  offset="0.497" style="stop-color:#C42482"/>
		<stop  offset="0.986" style="stop-color:#620700"/>
	</radialGradient>
	<path class="st5" d="M32,57.9c9.5,3,17.7-4.5,12.7-7C40.1,48.7,27.5,56.5,32,57.9z"/>
	
		<radialGradient id="SVGID_6_" cx="44.5431" cy="35.9731" r="47.6939" fx="46.249" fy="35.1299" gradientTransform="matrix(1 0 0 -1 0 60)" gradientUnits="userSpaceOnUse">
		<stop  offset="0.156" style="stop-color:#FFEA00"/>
		<stop  offset="0.231" style="stop-color:#FFDE00"/>
		<stop  offset="0.365" style="stop-color:#FFBF00"/>
		<stop  offset="0.541" style="stop-color:#FF8E00"/>
		<stop  offset="0.763" style="stop-color:#FF272D"/>
		<stop  offset="0.796" style="stop-color:#F92433"/>
		<stop  offset="0.841" style="stop-color:#E91C45"/>
		<stop  offset="0.893" style="stop-color:#CF0E62"/>
		<stop  offset="0.935" style="stop-color:#B5007F"/>
	</radialGradient>
	<path class="st6" d="M54.4,42.8c0.2-0.3,0.5-1.4,0.8-1.8c1.7-2.7,1.7-4.9,1.7-4.9c1-5.1,0.9-7.1,0.3-11c-0.5-3.1-2.7-7.5-4.6-9.6
		c-2-2.2-0.6-1.5-2.5-3.1c-1.7-1.8-3.3-3.7-4.2-4.4c-6.4-5.3-6.2-6.4-6.1-6.6c0,0-0.1,0.1-0.1,0.1c-0.1-0.3-0.1-0.6-0.1-0.6
		s-3.5,3.5-4.2,9.3c-0.5,3.8,0.9,7.7,3,10.2c1.1,1.3,2.3,2.5,3.6,3.5v0c1.5,2.2,2.4,5,2.4,7.9c0,7.4-6,13.4-13.4,13.4
		c-1,0-2-0.1-3-0.3c-3.5-0.7-5.5-2.4-6.5-3.6c-0.6-0.7-0.8-1.2-0.8-1.2c3.1,1.1,6.6,0.9,8.7-0.3c2.1-1.2,3.4-2,4.4-1.7
		c1,0.3,1.8-0.7,1.1-1.7c-0.7-1-2.6-2.5-5.4-2.1c-2.1,0.3-4.1,1.8-6.8,0.4c-0.2-0.1-0.4-0.2-0.5-0.3c-0.2-0.1,0.6,0.2,0.4,0
		c-0.5-0.3-1.5-0.8-1.7-1c0,0,0.4,0.1,0.4,0.1c-2.6-1.9-2.3-3.2-2.2-4c0.1-0.6,0.5-1.5,1.3-1.8C20.8,27.8,21,28,21,28
		s-0.2-0.3-0.3-0.5c0,0,0.1,0,0.1,0c0.3,0.1,1,0.5,1.4,0.7c0.5,0.3,0.6,0.6,0.6,0.6s0.1-0.1,0-0.3c0-0.1-0.2-0.5-0.7-0.8l0,0
		c0.3,0.1,0.5,0.3,0.8,0.5c0.1-0.4,0.4-0.9,0.3-1.7c0-0.6,0-0.7-0.1-0.9c-0.1-0.2,0.1-0.3,0.2-0.1c0-0.2-0.1-0.3-0.1-0.4l0,0
		c0.2-0.7,4.6-2.4,4.9-2.7c0.5-0.3,1-0.8,1.3-1.3c0.2-0.3,0.4-0.8,0.5-1.6c0-0.3-0.1-0.6-1.2-0.9c-0.7-0.2-1.8-0.3-3.4-0.5
		c-1.2-0.1-1.9-0.9-2.3-1.6c-0.1-0.2-0.1-0.3-0.2-0.4c-0.1-0.2-0.1-0.3-0.2-0.5c0.7-1.9,2-3.5,3.7-4.6c0.1-0.1-0.4,0-0.3-0.1
		c0.1-0.1,0.9-0.4,1-0.4c0.2-0.1-0.7-0.4-1.5-0.3c-0.8,0.1-1,0.2-1.4,0.3c0.2-0.2,0.8-0.4,0.6-0.4c-0.9,0.1-2,0.6-2.9,1.1
		c0-0.1,0-0.2,0.1-0.3c-0.4,0.2-1.5,0.8-1.8,1.4c0-0.1,0-0.2,0-0.3c-0.3,0.2-0.6,0.5-0.9,0.8l0,0c-2.5-0.9-4.7-1-6.6-0.6
		c-0.4-0.4-1.1-0.9-2-2.8c-0.1-0.1-0.1,0.2-0.1,0.1c-0.4-0.8-0.6-2.2-0.5-3.2c0,0-0.8,0.3-1.4,1.8C8.4,8.5,8.3,8.6,8.2,8.8
		c0,0,0.1-0.5,0.1-0.4C8.2,8.5,7.9,8.8,7.8,9.1C7.7,9.4,7.6,9.5,7.5,9.8l0,0c0-0.1,0-0.4,0-0.3c-0.3,0.6-0.5,1.2-0.8,1.8
		C6.4,12.4,6,13.9,6,15.9c0,0.1,0,0.3,0,0.4c-0.8,0.9-1.3,1.7-1.5,2.1c-1,1.6-2.2,4.1-3.2,8c0.5-1.1,1.1-2.1,1.7-3
		c-0.9,2.1-1.8,5.3-2,10.3c0.2-1,0.5-2.1,0.8-3.1C1.6,33.9,2,38.1,4.1,42.7c1.3,2.7,4.1,8.3,11.2,12.7l0,0c0,0,2.4,1.8,6.5,3.1
		c0.3,0.1,0.6,0.2,0.9,0.3c-0.1,0-0.2-0.1-0.3-0.1c2.7,0.8,5.6,1.2,8.5,1.2c10.7,0,13.8-4.3,13.8-4.3s0,0,0,0
		c0.2-0.1,0.3-0.3,0.4-0.4c-1.7,1.6-5.5,1.7-7,1.6c2.5-0.7,4.1-1.3,7.2-2.5c0.4-0.1,0.7-0.3,1.1-0.5c0,0,0.1,0,0.1-0.1
		c0.1,0,0.2-0.1,0.2-0.1c1.5-0.7,3-1.6,4.3-2.7c3.2-2.5,3.8-5,4.2-6.6c0,0.2-0.2,0.5-0.3,0.8c-0.8,1.7-2.6,2.8-4.6,3.7
		c0.9-1.2,1.8-2.5,2.6-3.8C53.7,44.5,53.9,43.5,54.4,42.8z"/>
	
		<radialGradient id="SVGID_7_" cx="40.9546" cy="59.9214" r="56.318" gradientTransform="matrix(1 0 0 -1 0 60)" gradientUnits="userSpaceOnUse">
		<stop  offset="0.279" style="stop-color:#FFEA00"/>
		<stop  offset="0.402" style="stop-color:#FFDD00"/>
		<stop  offset="0.63" style="stop-color:#FFBA00"/>
		<stop  offset="0.856" style="stop-color:#FF9100"/>
		<stop  offset="0.933" style="stop-color:#FF6711"/>
		<stop  offset="0.994" style="stop-color:#FF4A1D"/>
	</radialGradient>
	<path class="st7" d="M50.6,48.8c1.3-1.4,2.4-3,3.3-4.9c2.3-4.7,5.7-12.6,3-20.8c-2.2-6.5-5.1-10-8.9-13.5C41.8,4,40.1,1.5,40.1,0
		c0,0-7.1,7.9-4,16.1c3.1,8.2,9.4,7.9,13.5,16.5c4.9,10.1-4,21.1-11.3,24.2c0.4-0.1,16.3-3.7,17.1-12.7
		C55.4,44.3,55.1,46.8,50.6,48.8z"/>
	
		<linearGradient id="SVGID_8_" gradientUnits="userSpaceOnUse" x1="-9236.7646" y1="7116.1343" x2="-9219.4258" y2="7120.5542" gradientTransform="matrix(1.219 0.123 0.123 -1.219 10396.2334 9832.6436)">
		<stop  offset="0" style="stop-color:#C42482;stop-opacity:0.5"/>
		<stop  offset="0.474" style="stop-color:#FF272D;stop-opacity:0.5"/>
		<stop  offset="0.486" style="stop-color:#FF2C2C;stop-opacity:0.513"/>
		<stop  offset="0.675" style="stop-color:#FF7A1A;stop-opacity:0.72"/>
		<stop  offset="0.829" style="stop-color:#FFB20D;stop-opacity:0.871"/>
		<stop  offset="0.942" style="stop-color:#FFD605;stop-opacity:0.964"/>
		<stop  offset="1" style="stop-color:#FFE302"/>
	</linearGradient>
	<path class="st8" d="M30.1,19.5c0-0.5-0.3-0.9-4.7-1.3c-1.8-0.2-2.5-1.8-2.7-2.6c-0.6,1.7-0.9,3.4-0.8,5.6c0.1,1.4,1,2.9,1.5,3.8
		c0,0,0.1-0.1,0.1-0.2c0.8-0.9,4.4-2.2,4.7-2.4C28.6,22.1,30,21.1,30.1,19.5z"/>
	
		<linearGradient id="SVGID_9_" gradientUnits="userSpaceOnUse" x1="84.6018" y1="1440.5896" x2="81.2743" y2="1449.1169" gradientTransform="matrix(0.995 0.1 0.1 -0.995 -218.541 1440.771)">
		<stop  offset="0" style="stop-color:#891551;stop-opacity:0.6"/>
		<stop  offset="1" style="stop-color:#C42482;stop-opacity:0"/>
	</linearGradient>
	<path class="st9" d="M10.6,9.5c-0.1-0.1-0.1,0.2-0.1,0.1c-0.4-0.8-0.6-2.2-0.5-3.2c0,0-0.8,0.3-1.4,1.8C8.4,8.5,8.3,8.7,8.3,8.8
		c0,0,0.1-0.5,0.1-0.4C8.2,8.5,7.9,8.8,7.8,9.1C7.7,9.4,7.6,9.5,7.5,9.8c0,0.1,0-0.4,0-0.3c-1.4,2.8-1.7,7-1.6,6.8
		c3.1-3.3,6.6-4.1,6.6-4.1C12.2,12,11.4,11.2,10.6,9.5L10.6,9.5z"/>
	
		<linearGradient id="SVGID_10_" gradientUnits="userSpaceOnUse" x1="-230.1578" y1="-172.1148" x2="-224.4195" y2="-178.6323" gradientTransform="matrix(0.995 0.1 0.1 -0.995 260.594 -119.641)">
		<stop  offset="5.000000e-03" style="stop-color:#891551;stop-opacity:0.5"/>
		<stop  offset="0.484" style="stop-color:#FF272D;stop-opacity:0.5"/>
		<stop  offset="1" style="stop-color:#FF272D;stop-opacity:0"/>
	</linearGradient>
	<path class="st10" d="M22.3,43.9c-4.3-1.8-9.1-4.4-8.9-10.2c0.2-7.7,7.1-6.1,7.1-6.1c-0.3,0.1-1,0.6-1.2,1.1
		c-0.3,0.7-0.7,2.2,0.7,3.7c2.3,2.5-4.6,5.8,6,12.2C26.3,44.7,23.5,44.5,22.3,43.9L22.3,43.9z"/>
	
		<linearGradient id="SVGID_11_" gradientUnits="userSpaceOnUse" x1="-219.3029" y1="-183.4411" x2="-219.2988" y2="-178.8813" gradientTransform="matrix(0.995 0.1 0.1 -0.995 260.594 -119.641)">
		<stop  offset="0" style="stop-color:#C42482"/>
		<stop  offset="8.299999e-02" style="stop-color:#C42482;stop-opacity:0.81"/>
		<stop  offset="0.206" style="stop-color:#C42482;stop-opacity:0.565"/>
		<stop  offset="0.328" style="stop-color:#C42482;stop-opacity:0.362"/>
		<stop  offset="0.447" style="stop-color:#C42482;stop-opacity:0.204"/>
		<stop  offset="0.562" style="stop-color:#C42482;stop-opacity:9.100000e-02"/>
		<stop  offset="0.673" style="stop-color:#C42482;stop-opacity:2.300000e-02"/>
		<stop  offset="0.773" style="stop-color:#C42482;stop-opacity:0"/>
	</linearGradient>
	<path class="st11" d="M20.8,40.1c3,1,6.5,0.9,8.6-0.3c1.4-0.8,3.2-2,4.3-1.7c-1-0.4-1.7-0.6-2.6-0.6c-0.1,0-0.3,0-0.5,0
		c-0.3,0-0.6,0-1,0.1c-0.5,0-1.1,0.4-1.7,0.3c0,0,0.5-0.2,0.5-0.2c-0.3,0.1-0.6,0.1-0.9,0.1c-0.2,0-0.4,0-0.6,0.1
		c-6.3,0.5-11.6-3.4-11.6-3.4C14.9,35.9,17.4,38.9,20.8,40.1L20.8,40.1z"/>
	
		<linearGradient id="SVGID_12_" gradientUnits="userSpaceOnUse" x1="38.7712" y1="57.7976" x2="57.4088" y2="16.121" gradientTransform="matrix(1 0 0 -1 0 60)">
		<stop  offset="0" style="stop-color:#FFF14F"/>
		<stop  offset="0.268" style="stop-color:#FFEE4C"/>
		<stop  offset="0.452" style="stop-color:#FFE643"/>
		<stop  offset="0.612" style="stop-color:#FFD834"/>
		<stop  offset="0.757" style="stop-color:#FFC41E"/>
		<stop  offset="0.892" style="stop-color:#FFAB02"/>
		<stop  offset="0.902" style="stop-color:#FFA900"/>
		<stop  offset="0.949" style="stop-color:#FFA000"/>
		<stop  offset="1" style="stop-color:#FF9100"/>
	</linearGradient>
	<path class="st12" d="M50.6,48.9c6.4-6.2,9.6-13.8,8.2-22.3c0,0,0.5,4.4-1.5,8.8c1-4.4,1.1-9.8-1.5-15.4C52.2,12.5,46.4,8.6,44.2,7
		c-3.3-2.5-4.7-5-4.7-5.5c-1,2-4,9-0.3,15.1c3.5,5.6,8.9,7.3,12.7,12.5C58.9,38.5,50.6,48.9,50.6,48.9z"/>
	
		<linearGradient id="SVGID_13_" gradientUnits="userSpaceOnUse" x1="42.4514" y1="33.8287" x2="33.6229" y2="10.1244" gradientTransform="matrix(1 0 0 -1 0 60)">
		<stop  offset="0" style="stop-color:#FF8E00"/>
		<stop  offset="4.000000e-02" style="stop-color:#FF8E00;stop-opacity:0.858"/>
		<stop  offset="8.400000e-02" style="stop-color:#FF8E00;stop-opacity:0.729"/>
		<stop  offset="0.13" style="stop-color:#FF8E00;stop-opacity:0.628"/>
		<stop  offset="0.178" style="stop-color:#FF8E00;stop-opacity:0.557"/>
		<stop  offset="0.227" style="stop-color:#FF8E00;stop-opacity:0.514"/>
		<stop  offset="0.282" style="stop-color:#FF8E00;stop-opacity:0.5"/>
		<stop  offset="0.389" style="stop-color:#FF8E00;stop-opacity:0.478"/>
		<stop  offset="0.524" style="stop-color:#FF8E00;stop-opacity:0.416"/>
		<stop  offset="0.676" style="stop-color:#FF8E00;stop-opacity:0.314"/>
		<stop  offset="0.838" style="stop-color:#FF8E00;stop-opacity:0.172"/>
		<stop  offset="1" style="stop-color:#FF8E00;stop-opacity:0"/>
	</linearGradient>
	<path class="st13" d="M49.6,32.7c-2.2-4.6-5-6.6-7.6-8.8c0.3,0.4,0.4,0.6,0.5,0.9c2.3,2.5,5.7,8.5,3.2,16
		c-4.6,14.2-23.2,7.5-25.2,5.6c0.8,8.2,14.5,12.1,23.5,6.8C49.2,48.4,53.3,40.2,49.6,32.7z"/>
</g>
</svg>
