<?xml version="1.0" encoding="utf-8"?>
<!-- Generator: Adobe Illustrator 23.0.1, SVG Export Plug-In . SVG Version: 6.00 Build 0)  -->
<svg version="1.1" id="Layer_1" xmlns="http://www.w3.org/2000/svg" xmlns:xlink="http://www.w3.org/1999/xlink" x="0px" y="0px"
	 viewBox="0 0 92 92" style="enable-background:new 0 0 92 92;" xml:space="preserve">
<g>
	<path d="M77.8,14.2C69.3,5.7,58,1,46,1S22.7,5.7,14.2,14.2C5.7,22.7,1,34,1,46c0,12,4.7,23.3,13.2,31.8C22.7,86.3,34,91,46,91
		s23.3-4.7,31.8-13.2C86.3,69.3,91,58,91,46C91,34,86.3,22.7,77.8,14.2z M77.2,77.2C68.9,85.6,57.8,90.1,46,90.1
		c-11.8,0-22.9-4.6-31.2-12.9C6.4,68.9,1.9,57.8,1.9,46s4.6-22.9,12.9-31.2C23.1,6.4,34.2,1.8,46,1.8c11.8,0,22.9,4.6,31.2,12.9
		c8.3,8.3,12.9,19.4,12.9,31.2S85.6,68.9,77.2,77.2z M29.2,40.9c0.2,0.1,0.4,0.1,0.6,0.1c0.7,0,1.3-0.4,1.6-1c0.2-0.4,0.2-0.9,0-1.3
		c-0.2-0.4-0.5-0.7-0.9-0.9c-0.9-0.4-1.9,0.1-2.2,0.9c-0.2,0.4-0.2,0.9,0,1.3C28.5,40.4,28.8,40.7,29.2,40.9z M29.1,39
		c0.1-0.3,0.5-0.5,0.8-0.5c0.1,0,0.2,0,0.3,0.1c0.2,0.1,0.4,0.3,0.5,0.5c0.1,0.2,0.1,0.4,0,0.7c-0.2,0.4-0.7,0.6-1.1,0.5
		c-0.2-0.1-0.4-0.3-0.5-0.5C29,39.4,29,39.2,29.1,39z M75.9,39.9v-3.5H75v9.2H59.3l-2.3-2.3l-0.6,0.6l1.7,1.7h-5.4l-2.9-2.9
		l13.8-13.8c0.4,0.3,1,0.5,1.6,0.5c1.5,0,2.7-1.2,2.7-2.7c0-0.6-0.2-1.1-0.5-1.6l3.6-3.6h3.2v-0.9h-2.4l2.5-2.5l-0.6-0.6l-2.5,2.5
		v-2.4h-0.9v3.2l-3.6,3.6c-0.4-0.3-1-0.5-1.6-0.5c-1.5,0-2.7,1.2-2.7,2.7c0,0.6,0.2,1.1,0.5,1.6L49.3,42.1l-2.9-2.9v-9.4l2.8,2.8
		l0.6-0.6l-3.4-3.4v-3.3l1.7,1.7l0.6-0.6l-2.3-2.3V13.7l3.2,2.5v7.8h0.9V7.6h-0.9v7.5l-7.3-5.6V7.6h-0.9v16.3h0.9V10.5l3.2,2.5v26.2
		l-2.9,2.9L28.9,28.3c0.3-0.4,0.5-1,0.5-1.6c0-1.5-1.2-2.7-2.7-2.7c-0.6,0-1.1,0.2-1.6,0.5l-3.6-3.6v-3.2h-0.9v2.4l-2.5-2.5
		l-0.6,0.6l2.5,2.5h-2.4v0.9h3.2l3.6,3.6c-0.3,0.4-0.5,1-0.5,1.6c0,1.5,1.2,2.7,2.7,2.7c0.6,0,1.1-0.2,1.6-0.5l13.8,13.8l-2.9,2.9
		h-6.5l1.7-1.7l-0.6-0.6l-2.3,2.3h-7.5v-7.2l-8.2,7.1l-8.2-7.1v15.2l8.2-7l8.2,7v-7.2h7.5l2.3,2.3l0.6-0.6l-1.7-1.7h6.5l2.8,2.9
		L28.3,63.1c-0.4-0.3-1-0.5-1.6-0.5c-1.5,0-2.7,1.2-2.7,2.7c0,0.6,0.2,1.1,0.5,1.6l-3.6,3.6h-3.2v0.9h2.4l-2.5,2.5l0.6,0.6l2.5-2.5
		v2.4h0.9v-3.2l3.6-3.6c0.4,0.3,1,0.5,1.6,0.5c1.5,0,2.7-1.2,2.7-2.7c0-0.6-0.2-1.1-0.5-1.6l13.8-13.8l2.9,2.9v7.2l-1.7-1.7
		l-0.6,0.6l2.3,2.3v6.3L44,66.2v20h0.9v-9.1l5.6,4.4l0.5-0.7l-5.4-4.2l5.8-4.5l-5.1-4V55.7l1.7,1.7l0.6-0.6l-2.3-2.3v-1.8l2.9-2.9
		l13.8,13.8c-0.3,0.4-0.5,1-0.5,1.6c0,1.5,1.2,2.7,2.7,2.7c0.6,0,1.1-0.2,1.6-0.5l3.6,3.6v3.2h0.9v-2.4l2.5,2.5l0.6-0.6l-2.5-2.5
		h2.4v-0.9h-3.2l-3.6-3.6c0.3-0.4,0.5-1,0.5-1.6c0-1.5-1.2-2.7-2.7-2.7c-0.6,0-1.1,0.2-1.6,0.5L49.9,49.3l2.9-2.9h5.4l-1.7,1.7
		l0.6,0.6l2.3-2.3H75v9.1h0.9v-4l8.4-5.8L75.9,39.9z M67.1,26.7c0,1-0.8,1.8-1.8,1.8c-0.3,0-0.7-0.1-1-0.3l2.5-2.5
		C67,26,67.1,26.4,67.1,26.7z M65.3,24.9c0.3,0,0.7,0.1,1,0.3l-2.5,2.5c-0.2-0.3-0.3-0.6-0.3-1C63.5,25.7,64.3,24.9,65.3,24.9z
		 M26.7,28.5c-1,0-1.8-0.8-1.8-1.8c0-0.3,0.1-0.7,0.3-1l2.5,2.5C27.4,28.4,27.1,28.5,26.7,28.5z M28.3,27.7l-2.5-2.5
		c0.3-0.2,0.6-0.3,1-0.3c1,0,1.8,0.8,1.8,1.8C28.5,27.1,28.4,27.4,28.3,27.7z M8.5,51.7V40.2l6.7,5.7L8.5,51.7z M23.2,51.7L16.5,46
		l6.7-5.7V51.7z M24.9,65.3c0-1,0.8-1.8,1.8-1.8c0.3,0,0.7,0.1,1,0.3l-2.5,2.5C25,66,24.9,65.6,24.9,65.3z M26.7,67.1
		c-0.3,0-0.7-0.1-1-0.3l2.5-2.5c0.2,0.3,0.3,0.6,0.3,1C28.5,66.3,27.7,67.1,26.7,67.1z M65.3,63.4c1,0,1.8,0.8,1.8,1.8
		c0,0.3-0.1,0.7-0.3,1l-2.5-2.5C64.6,63.5,64.9,63.4,65.3,63.4z M63.7,64.3l2.5,2.5c-0.3,0.2-0.6,0.3-1,0.3c-1,0-1.8-0.8-1.8-1.8
		C63.5,64.9,63.6,64.6,63.7,64.3z M50.1,72.1l-5.2,4.1v-8.2L50.1,72.1z M46,52l-6-6l6-6l6,6L46,52z M75.9,41l6.9,4.8l-6.9,4.8V41z
		 M62.8,51.1L62.8,51.1c-0.9-0.4-1.9,0.1-2.2,0.9c-0.2,0.4-0.2,0.9,0,1.3c0.2,0.4,0.5,0.7,0.9,0.9c0.2,0.1,0.4,0.1,0.6,0.1
		c0.7,0,1.3-0.4,1.6-1c0.2-0.4,0.2-0.9,0-1.3C63.5,51.6,63.2,51.3,62.8,51.1z M62.9,53c-0.2,0.4-0.7,0.6-1.1,0.5
		c-0.2-0.1-0.4-0.3-0.5-0.5c-0.1-0.2-0.1-0.4,0-0.7c0.1-0.3,0.5-0.5,0.8-0.5c0.1,0,0.2,0,0.3,0.1c0.2,0.1,0.4,0.3,0.5,0.5
		C63,52.6,63,52.8,62.9,53z"/>
</g>
</svg>
