<?xml version="1.0" encoding="utf-8"?>
<!-- Generator: Adobe Illustrator 23.0.1, SVG Export Plug-In . SVG Version: 6.00 Build 0)  -->
<svg version="1.1" id="Layer_1" xmlns="http://www.w3.org/2000/svg" xmlns:xlink="http://www.w3.org/1999/xlink" x="0px" y="0px"
	 viewBox="0 0 92 68" style="enable-background:new 0 0 92 68;" xml:space="preserve">
<g>
	<path d="M57.9,1C40,1,25.3,15.2,24.8,33h-6.5l-5.7-5.6l-1.5,1.5l4.2,4.2H1V35h14.3l-4.2,4.2l1.5,1.5l5.7-5.6h6.5
		C25.3,52.8,40,67,57.9,67C76.1,67,91,52.2,91,34S76.1,1,57.9,1z M57.9,64.9c-16.8,0-30.4-13.3-31-29.9h22.8v14.7L72.6,34L49.6,18.3
		V33H26.9c0.6-16.6,14.2-29.9,31-29.9c17.1,0,31,13.9,31,30.9C88.9,51,75,64.9,57.9,64.9z M51.7,45.7V22.3L68.8,34L51.7,45.7z" fill="#fff"/>
</g>
</svg>
